<svg xmlns="http://www.w3.org/2000/svg" xmlns:xlink="http://www.w3.org/1999/xlink" viewBox="0 0 612 489"><defs><style>.cls-1{fill:red;}.cls-2{fill:#ffda03;}.cls-3{fill:#86e55e;}.cls-4{fill:#ff9100;}.cls-5{fill:#754aba;}</style></defs><g id="Layer_6" data-name="Layer 6"><path class="cls-1" d="M212.06,243.71a190.2,190.2,0,0,1-35.72,3.34c-35.15.29-74.83-2.41-101.91-27.47-.09-.09,0-.24.14-.16C107.68,245,154,247.18,194.24,245.62A163.88,163.88,0,0,0,212,243.51c.12,0,.17.18,0,.2Z"/><path class="cls-1" d="M214.22,274.79a236,236,0,0,1-86.22.62c-20.09-3.56-45.58-10-57.22-28.29-3.61-6.49-3.6-14.52-2.37-21.5-.08,6.95-.36,14.66,3.58,20.8,11.57,16.85,37.16,23.63,56.3,27.42,28.13,5.63,58.23,5.26,85.93,1Z"/><path class="cls-1" d="M74.85,219.75a144.31,144.31,0,0,0,49,20.55,186.73,186.73,0,0,0,52.86,5.45c11.87-.1,23.87-1.7,35.62-2.74a202.77,202.77,0,0,1-35.55,4.74,173.31,173.31,0,0,1-53.23-6.2c-17.16-4-35-11.58-48.7-21.8Z"/><path class="cls-1" d="M217.52,198.4c2.69.84-7.47,2.61-8.06,2.76-6.09,1-12.17,2.24-18.32,2.83a66.93,66.93,0,0,1-9.29.1.1.1,0,0,1,0-.2c11.2-3.18,22.94-2.54,34.33-4.67a5.14,5.14,0,0,0,1.57-.49s.06,0,0,0a.85.85,0,0,0-.24-.09.1.1,0,0,1,0-.2Z"/><path class="cls-1" d="M74.57,192.57c-9.57,9.88-14.29,25-7.88,37.79l-.83,0c2.38-6.09,7.74-10.55,13.65-13,32.64-13.27,97.59,5.18,130.06,17.57-30.81-8.24-111.14-34.23-137.49-11.64a21.51,21.51,0,0,0-5.76,8.4l-.44-.88c-4.62-9.58-3.31-21.23,2.19-30.15a46.14,46.14,0,0,1,6.36-8.23c.08-.09.23,0,.14.14Z"/><path class="cls-1" d="M181.85,204.09a169.6,169.6,0,0,1-67.22-4.59c-12.37-3.49-27.49-10.49-36-17.78-3.36.4-9.34,1.16-10.18,5-.13,2.17,1.35,4.63,3.63,5,3.15.61,8.31-1.39,10.17,2.5,2.78,4.68,5.41,14.76,11.08,15.95a3.71,3.71,0,0,0,3.49-2,26.26,26.26,0,0,0,2.28-4.46c.92-1.93,1.78-4.64,4-5.85,1.54-.74,3.19,0,4.58.61a12.25,12.25,0,0,1,7.17,8.25c2,7.23.11,13.91,10.65,11.92,3.33-.64,5.77-2.89,7.79-5.56a14.41,14.41,0,0,1,3.89-3.9,5.42,5.42,0,0,1,7.68,2.46c2.33,4.32.69,14.83,8.24,12.82,6-1.84,7.66-15,13.71-14.36a.1.1,0,0,1,0,.19,3.39,3.39,0,0,0-2.37.65c-5.08,4.16-5.53,15.19-13.79,14.83-7-1.11-4.16-11.62-8.52-15.14-3.13-1.86-5.67,1-7.45,3.51-2.08,2.91-5.09,5.64-8.75,6.36s-8.49.83-10.48-2.89c-1.76-3.35-1.48-6.93-2.56-10.31a10.51,10.51,0,0,0-7.15-7.41c-.7-.23-1.14-.46-1.76-.2-1.57,1-2.16,3-3.07,4.82-1.41,3.15-3.46,8-7.78,7.46-6.85-1.31-9.3-11.75-12.28-17a2.68,2.68,0,0,0-1.44-1.41c-3.19-1-7.4,1-10.3-1.69A6.63,6.63,0,0,1,67,186.54c.93-4.85,7.52-5.73,11.54-6.16l.25,0,.2.16a109.11,109.11,0,0,0,35.9,18c21.43,6.62,45.31,7.5,66.94,5.54Z"/><path class="cls-1" d="M216.84,213.46c-9.65,2.16-35.51,8.34-42.65.12a5.42,5.42,0,0,1-1.3-3.61,5.86,5.86,0,0,1,1.84-3.13c.73-.8,1.55-1.59,1.5-2.67a.12.12,0,0,1,.09-.11c1,1.88-2.15,4.21-2,6,1.07,5.56,11.68,5.78,16.25,6a156.81,156.81,0,0,0,26.26-2.74c.11,0,.16.17,0,.19Z"/><path class="cls-1" d="M216.1,190.36c1.51-25.08,2.34-50.2,2.34-75.33l.25.32a211.14,211.14,0,0,0-42.29-4.78c-32.3-.23-75.62,5.25-100.13,27.91-11.45,11.14-12.06,24.73-1.44,36.74,23,24.84,66.17,31.11,98.61,29.05a305.51,305.51,0,0,0,42.29-5.53l-.12.14.49-8.52Zm.2,0-.39,8.53V199l-.12,0c-27.87,5.61-56.73,9.64-85,4.81-20.78-3.69-42.91-11.27-57.42-27.33C62.19,163.78,62.85,149,75.08,137.29c25.09-22.89,68.56-28.18,101.34-27.78a205.34,205.34,0,0,1,42.42,5.2l.26.06V115c-.3,25.14-1.36,50.25-2.79,75.34Z"/><path class="cls-1" d="M87.65,228c-1.58,3.69-4.84,12.09-.16,14.48,3,.94,6.32-.19,9.32-.93,4.47-1.12,8.61-3.28,13.23-3.87,1,0,1.49,1.22,1.88,1.93,1.35,2.93,2.42,6,3.88,8.83s4.83,8.71,8.45,5.54c2.33-3,1.44-7.33,3.34-10.57,1-1.83,3.42-1.21,5.08-1,3.48.46,6.94,1.36,10.37,1.92,0,0-.07,0-.11,0a.5.5,0,0,0-.25.15c1.37-.36,1,.34,1.16.26l0,.13c1.36,6.25,4.85,18.78,13.48,14,3.54-2.13,6.11-5.67,8.68-8.92,1.18-1.42,2.21-3,3.85-4.09,2.89-1.56,4.68,4.15,5.83,6,1.86,3.46,3.84,7.66,7.46,9.33,4.8,1.94,5.85-2.88,6.08-6.63.44-2.53-.35-8.78,3-9.57a4.31,4.31,0,0,1,3.56,1.08c1.7,1.43,2.85,3.18,4.62,4.43,1.95,1.4,4.79,2.22,7.08,1.3,1.33-.84,1.08-2.61,1.2-4.08a5.51,5.51,0,0,1,.9-3.18,4.27,4.27,0,0,1,2.94-1.4.1.1,0,0,1,0,.2c-5.81,1-1.34,6.69-4.64,9.17-2.58,1.29-5.85.46-8.16-1.06-1.9-1.23-3.28-3.07-4.83-4.29-1.8-1.27-3.16-1.06-3.51,1.21-.77,4.17.25,9.05-2.1,13-1.4,2.3-4.6,2.71-6.92,1.71-4.37-2-6.42-6.34-8.54-10.22-.84-1.41-1.84-4.05-3-5.14-.06-.07-.06,0-.06-.05s.1,0,.11,0c-1.3.79-2.28,2.35-3.34,3.57-3.95,4.68-9.12,12.33-16.26,10-6-2.65-7.52-10.28-8.81-15.79.15-.11-.24.55,1.09.2a1.21,1.21,0,0,1-.72.18c-4.45-.71-8.89-2.22-13.37-2.32-.68.11-1.16,1-1.45,2-1,3.08-.77,6.69-3,9.34-1.73,2-4.92,1.32-6.52-.39-4.3-4.34-5.26-10.58-8.15-15.69-.29-.32-.74-.16-1.14-.14-5.26.62-22,9.07-24.15,1.9-1.2-4.25.68-8.66,2.34-12.52.06-.12.24,0,.18.08Z"/><path class="cls-1" d="M80.57,207.54c-.33,6.57-9.31,6.47-9.77,0,0-7.14,9.89-7.27,9.77,0Zm-.2,0c-.24-4.61-7.71-4.51-8,0-.13,5.22,8,5.19,8,0Z"/><path class="cls-1" d="M208.94,222.08c-1.15-.61-2.65-1.41-2.78-2.91a1.55,1.55,0,0,1,.27-.92c1.42-1.67,3.09-1.48,4.57-.35a.13.13,0,0,1,0,.2,6.12,6.12,0,0,1-3.3,1.12s-.14,0-.1.26a6.29,6.29,0,0,0,1.46,2.44.1.1,0,0,1-.12.16Z"/><path class="cls-1" d="M101,175.17c-.21,3.66-5,3.56-5.33,0-.1-4.19,5.68-4.35,5.33,0Zm-.2,0c-.14-1.85-3.27-1.58-3.53,0-.23,2.24,3.64,2.35,3.53,0Z"/><path class="cls-1" d="M123.13,173.4c-.21,3.65-5,3.56-5.33,0-.1-4.19,5.68-4.35,5.33,0Zm-.2,0c-.15-1.85-3.27-1.58-3.53,0-.23,2.24,3.64,2.35,3.53,0Z"/><path class="cls-1" d="M112.49,185.81c-.21,3.66-5,3.56-5.33,0-.1-4.19,5.68-4.35,5.33,0Zm-.2,0c-.15-1.85-3.27-1.58-3.53,0-.23,2.24,3.64,2.36,3.53,0Z"/><path class="cls-1" d="M137.14,188.1c-3.65.36-4.3-4.39-.83-5.27,4.12-.75,5.18,4.93.83,5.27Zm0-.2c1.8-.43,1-3.48-.55-3.49-2.25.13-1.76,4,.55,3.49Z"/><path class="cls-1" d="M154.44,196c-3.64.36-4.29-4.39-.83-5.26,4.12-.76,5.18,4.93.83,5.26Zm0-.19c1.81-.44,1.05-3.48-.55-3.49-2.25.12-1.76,4,.55,3.49Z"/><path class="cls-1" d="M172.6,188.1c-3.64.36-4.29-4.39-.83-5.27,4.12-.75,5.19,4.93.83,5.27Zm0-.2c1.81-.43,1.06-3.48-.55-3.49-2.24.13-1.76,4,.55,3.49Z"/><path class="cls-1" d="M196,196.11c1,3.52-3.58,5-5.05,1.73-1.46-3.92,4-6,5.05-1.73Zm-.19.06c-.75-1.7-3.61-.43-3.34,1.15.51,2.19,4.2,1,3.34-1.15Z"/><path class="cls-1" d="M161.8,170.13c-3.33,1.52-5.49-2.76-2.5-4.72,3.66-2,6.51,3,2.5,4.72Zm-.09-.18c1.57-1-.14-3.64-1.66-3.12-2.08.84-.37,4.31,1.66,3.12Z"/><path class="cls-1" d="M215.89,175.45c-3.33,1.52-5.49-2.76-2.5-4.72,3.65-2,6.51,3,2.5,4.72Zm-.09-.18c1.56-1-.14-3.63-1.66-3.12-2.08.84-.37,4.31,1.66,3.12Z"/><path class="cls-1" d="M85.55,164.81c-3.33,1.52-5.49-2.76-2.5-4.72,3.65-2.05,6.5,3,2.5,4.72Zm-.1-.18c1.57-1-.13-3.63-1.65-3.12-2.09.84-.38,4.31,1.65,3.12Z"/><path class="cls-1" d="M206.23,188.93c1-3.53,5.66-2.4,5.21,1.15-.8,4.11-6.48,3-5.21-1.15Zm.2,0c-.25,1.84,2.86,2.25,3.45.76.7-2.14-3-3.08-3.45-.76Z"/><path class="cls-1" d="M209.21,159c1-3.53,5.66-2.4,5.21,1.15-.8,4.11-6.48,3-5.21-1.15Zm.2,0c-.26,1.84,2.85,2.25,3.45.76.7-2.14-3.05-3.08-3.45-.76Z"/><path class="cls-1" d="M195.72,171.56c3.64.44,3.25,5.21-.32,5.32-4.19-.15-4-5.93.32-5.32Zm0,.2c-1.86,0-1.78,3.17-.22,3.53,2.22.36,2.57-3.49.22-3.53Z"/><path class="cls-1" d="M180.51,160.15c3.64.44,3.25,5.21-.32,5.32-4.19-.15-4-5.93.32-5.32Zm0,.2c-1.86,0-1.78,3.17-.21,3.53,2.22.36,2.56-3.49.21-3.53Z"/><path class="cls-1" d="M144,167.54c3.64.43,3.25,5.21-.32,5.32-4.19-.15-4-5.93.32-5.32Zm0,.2c-1.86,0-1.78,3.17-.22,3.53,2.22.36,2.57-3.49.22-3.53Z"/><path class="cls-1" d="M140,151.09c-.21-3.66,4.56-4.11,5.29-.61.58,4.15-5.14,5-5.29.61Zm.2,0c.35,1.82,3.43,1.19,3.51-.41,0-2.25-3.89-1.92-3.51.41Z"/><path class="cls-1" d="M120.49,155.25c3.58-.78,4.76,3.87,1.42,5.14-4,1.21-5.71-4.31-1.42-5.14Zm.05.19c-1.75.64-.65,3.58.95,3.4,2.21-.38,1.29-4.13-.95-3.4Z"/><path class="cls-1" d="M97.86,155.63c3.58-.77,4.77,3.87,1.43,5.14-4,1.22-5.71-4.31-1.43-5.14Zm0,.19c-1.74.64-.64,3.58,1,3.41,2.22-.38,1.29-4.14-1-3.41Z"/><path class="cls-1" d="M102.73,138.74c3.58-.77,4.77,3.87,1.42,5.14-4,1.22-5.71-4.3-1.42-5.14Zm0,.2c-1.75.63-.65,3.57,1,3.4,2.21-.38,1.29-4.13-1-3.4Z"/><path class="cls-2" d="M341.05,313.57c3.63.91,5.46,4.73,8.65,6.39,44.7,26.76,90.69,22.91,125.86-16.88a111.37,111.37,0,0,0,12.66-17.24,30.53,30.53,0,0,0,5.1-4.93c4.54-5.54,4.37-13.06,2.88-19.72-1.09-5.75-3.06-11.81-1.3-17.67.69-2.38,2.18-4.82,4.65-5.7,4.26-1.43,8.74.83,12.05,3.35a4.17,4.17,0,0,1,1.28,1.58c2.32,5.11,2.1,21-3.3,24.11-1.41,1.47-1.48,4.09-1.59,6.12a68,68,0,0,0,1.44,13.82l-.17-.36c7.28,8,11,19.32,9.11,30.1-5.73,30.82-41.2,51.79-67.66,63.73-29.6,13-64.39,10.63-93.38-2.89a112,112,0,0,1-26.82-17.29.51.51,0,0,1-.18-.46c1.53-15.83,7.68-30.51,10.72-46.06Zm.12.17c-1.24,7.65-3.41,15.38-5.39,22.91a140.09,140.09,0,0,0-4.37,23.09l-.18-.46c28.19,23.6,68.06,33.46,103.81,24.28,22.88-6.3,51-22.58,67.08-40.05,10.39-11.24,18.47-27.17,13.63-42.61-1.48-5.15-4.54-9.64-7.83-13.79a69.3,69.3,0,0,1-1.42-14.17c.17-2.51.18-5.13,2.09-7.16a5.26,5.26,0,0,0,2.17-2.36,27.15,27.15,0,0,0,2.06-10c.09-3.36.11-7-1.16-10.08a6.08,6.08,0,0,0-2.28-2.13,15.38,15.38,0,0,0-6.21-2.48c-3.52-.61-6.22,1.87-7.05,5.15-1.68,5.63.22,11.35,1.26,17.07,1.54,6.92,1.59,14.89-3.17,20.64a28,28,0,0,1-5.19,4.95l.15-.17a118,118,0,0,1-28.62,32.11C429.77,342.59,393,342.93,359,325.36c-3.21-1.6-6.34-3.36-9.44-5.18s-4.95-5.26-8.4-6.44Z"/><path class="cls-2" d="M500.8,295.82c-7.71,18.12-20.54,34.33-37.29,44.87-8.22,5.47-17.21,10.08-26.86,12.39-32.52,8.75-68.77,1.44-98-12.76,30.89,11.61,65,19.37,97.65,11.29,13.38-3.07,25.38-10.44,36.24-18.61a104.56,104.56,0,0,0,16.19-17,103.37,103.37,0,0,0,11.92-20.28c.05-.11.24,0,.18.08Z"/><polygon class="cls-3" points="339.78 80.07 374 124.7 338.22 81.32 339.78 80.07 339.78 80.07"/><path class="cls-3" d="M373.82,134c-.35-2.83-1-6.39-.79-9.32l1,1c-.06,0-104.08,1.69-104.14,1.65l-51-10.17.55-.44c-.9,41.26-2.77,99.78-3.51,140.44.79-40.64,1.94-99.24,2.59-140.46v-.55l.54.1s51.46,9.89,50.9,9.82l104-2.34,1,0a21.05,21.05,0,0,1-.36,4.46,20.92,20.92,0,0,0-.81,5.84Z"/><path class="cls-3" d="M218.21,116.08c7.28-9.18,13.42-19.35,20.78-28.64l.62.76a57.65,57.65,0,0,1,3.71,5,1.83,1.83,0,0,1,.2.53.74.74,0,0,1-.39.78.78.78,0,0,1-.64.06,2,2,0,0,1-.61-.41,14.72,14.72,0,0,1-3.59-4.87,1.16,1.16,0,0,1,.14-1l.51-.86c5.07,7,10.69,13.62,16.22,20.32a201.35,201.35,0,0,1,15.06,20.14c0,.14,0,40.47,0,40.61,0,13.5,0,27-.25,40.5.27-23.31-.39-57.31-.55-81-8.6-13-21.15-25.85-31-38.89h1.13c.14-.24.05-.24.09-.18a12.64,12.64,0,0,0,2.4,3.29,9.18,9.18,0,0,0,1,.93.69.69,0,0,0-.62,0,.77.77,0,0,0-.34.44.69.69,0,0,0,0,.35,22.89,22.89,0,0,0-1.64-2.28c-.66-.84-1.34-1.67-2-2.5l1.23,0c-6.92,9.09-12.76,19-19.83,28.14l-1.58-1.23Z"/><path class="cls-3" d="M238.25,50.78c26.39-3,52.93-5.09,79.51-5a238,238,0,0,1,26.67,1.56l-.05.38-4.89,33-.06.44H339c-25.09-.36-50.31.21-75.22,3.41a159.68,159.68,0,0,0-25.62,5.24c-.06-13,0-26.06.11-39.07Zm1.49-.15c.12,12.71.18,25.35.12,38.07l-1.11-.83a162.17,162.17,0,0,1,24.81-4.79,456.54,456.54,0,0,1,50.27-3c8.4-.1,16.79-.08,25.18.16l-.5.42,5.11-33,.33.43a241.23,241.23,0,0,0-26.2-1.69c-26.05-.32-52.11,1.52-78,4.25Z"/><path class="cls-4" d="M362,222.59a13.13,13.13,0,0,1,2.23-.44c.36-.05.75-.27,1.09-.08a2.08,2.08,0,0,1,1,1,.17.17,0,0,1,0,.19,2,2,0,0,1-1.17.77c-.38.1-.71-.2-1.05-.33a10.28,10.28,0,0,1-1-.42c-.34-.18-.69-.32-1-.53a.1.1,0,0,1,0-.19Z"/><path class="cls-4" d="M370.71,228.55a12.39,12.39,0,0,1,2-.7c.34-.09.68-.35,1-.2s1.13.64,1,1.1a2,2,0,0,1-1,.9c-.33.15-.67-.12-1-.2a9.66,9.66,0,0,1-1-.3c-.34-.14-.68-.24-1-.4a.11.11,0,0,1,0-.2Z"/><path class="cls-4" d="M364.13,226.77a22.93,22.93,0,0,1,2.89-.89,3.16,3.16,0,0,1,1.46-.29,2.76,2.76,0,0,1,1.52.8.15.15,0,0,1,0,.2,2.83,2.83,0,0,1-1.41,1,3.25,3.25,0,0,1-1.48-.1,25.07,25.07,0,0,1-3-.51.11.11,0,0,1,0-.2Z"/><path class="cls-4" d="M396.39,234.3a9.63,9.63,0,0,1,1.58-.7c.27-.08.53-.34.79-.2s.85.61.79,1.1a1.67,1.67,0,0,1-.79.9c-.26.15-.52-.11-.79-.2a7,7,0,0,1-.79-.3c-.16-.13-1-.34-.79-.6Z"/><path class="cls-4" d="M404.14,234.3a22.17,22.17,0,0,1,2.78-.7c.46-.08.93-.34,1.39-.2a2.69,2.69,0,0,1,1.39.9.15.15,0,0,1,0,.2,2.57,2.57,0,0,1-1.39.9c-.46.15-.93-.11-1.39-.2a20.56,20.56,0,0,1-2.78-.7.11.11,0,0,1,0-.2Z"/><path class="cls-4" d="M398.59,238.5a7.53,7.53,0,0,1,.74-1.44c.14-.21.17-.57.45-.6a1.48,1.48,0,0,1,1.25.44,1.69,1.69,0,0,1,0,1.16c-.1.26-.46.2-.7.28s-.5.14-.76.2-.53.1-.82.12a.12.12,0,0,1-.12-.16Z"/><path class="cls-4" d="M407,238.58a7.75,7.75,0,0,1,.7,1.52c.08.25.35.5.2.75s-.6.82-1.1.76a1.65,1.65,0,0,1-.9-.76c-.15-.25.11-.5.2-.75a5.45,5.45,0,0,1,.3-.76,7.88,7.88,0,0,1,.4-.76.11.11,0,0,1,.2,0Z"/><path class="cls-4" d="M390.46,241.57a8.41,8.41,0,0,1,1.29,1.16c.19.2.53.33.51.64a1.73,1.73,0,0,1-.49,1.09c-.42.26-1.2-.14-1.33-.27s-.12-.53-.15-.8a7.92,7.92,0,0,1-.05-.85,8.77,8.77,0,0,1,0-.88.12.12,0,0,1,.18-.09Z"/><path class="cls-4" d="M394.58,243a10.9,10.9,0,0,1,1.54,1.13c.23.21.61.32.65.65a1.85,1.85,0,0,1-.29,1.23c-.37.32-1.27,0-1.41-.17s-.21-.56-.3-.86a8.07,8.07,0,0,1-.22-.91c0-.32-.11-.62-.13-1a.11.11,0,0,1,.16-.11Z"/><path class="cls-4" d="M392.64,248.6a22,22,0,0,1,1.64,2.43c.24.41.65.77.67,1.26a2.68,2.68,0,0,1-.36,1.65.14.14,0,0,1-.18.07,2.77,2.77,0,0,1-1.34-1c-.3-.39-.21-.93-.3-1.4a21.93,21.93,0,0,1-.31-2.91.1.1,0,0,1,.18-.07Z"/><path class="cls-4" d="M397,248.56a11.94,11.94,0,0,1,1.91.82c.29.16.71.19.85.52.1.15.35,1.21,0,1.47a1.85,1.85,0,0,1-1.33,0c-.34-.11-.4-.52-.58-.81a8.51,8.51,0,0,1-.5-.89,10.45,10.45,0,0,1-.44-1,.11.11,0,0,1,.13-.14Z"/><path class="cls-4" d="M383.75,241.61a7.16,7.16,0,0,1,.7,1.45c.09.24.35.48.2.72a1.43,1.43,0,0,1-1.1.72,1.71,1.71,0,0,1-.9-.72c-.15-.24.12-.48.2-.72a5.5,5.5,0,0,1,.3-.72c.14-.24.24-.49.4-.73a.12.12,0,0,1,.2,0Z"/><path class="cls-4" d="M384.72,247.47a6.43,6.43,0,0,1,.7,1.25c.08.21.34.42.2.62a1.49,1.49,0,0,1-1.1.63,1.59,1.59,0,0,1-.9-.63c-.15-.2.11-.41.2-.62a3.93,3.93,0,0,1,.3-.62c.14-.15.34-.83.6-.63Z"/><path class="cls-4" d="M378.08,246a8.79,8.79,0,0,1,1.11-1.39c.2-.21.32-.57.63-.57s1.07.12,1.24.58a1.81,1.81,0,0,1-.29,1.18c-.17.26-.54.16-.82.21a8.1,8.1,0,0,1-.86.13c-.31,0-.6,0-.92,0a.12.12,0,0,1-.09-.18Z"/><path class="cls-4" d="M381.11,248.72a5.79,5.79,0,0,1,.7,1.29c.09.22.35.43.2.65a1.45,1.45,0,0,1-1.1.64,1.67,1.67,0,0,1-.9-.64c-.14-.22.12-.43.2-.65s.19-.43.3-.64.35-.86.6-.65Z"/><path class="cls-4" d="M375.55,250a7.13,7.13,0,0,1,.7,1.51c.09.25.35.5.2.75s-.6.81-1.1.75a1.73,1.73,0,0,1-.9-.75c-.15-.25.12-.5.2-.75a6,6,0,0,1,.3-.76c.14-.25.24-.5.4-.75a.12.12,0,0,1,.2,0Z"/><path class="cls-4" d="M362,241.52a10.55,10.55,0,0,1,1.28-1.39c.23-.2.38-.56.71-.56s1.12.15,1.27.62a1.82,1.82,0,0,1-.41,1.19c-.2.26-.57.15-.87.2s-.61.08-.93.11-.63,0-1,0a.12.12,0,0,1-.09-.18Z"/><path class="cls-4" d="M365.1,244.43a5.72,5.72,0,0,1,.49-1.37c.1-.21.09-.55.34-.58a1.45,1.45,0,0,1,1.21.41,1.6,1.6,0,0,1,.12,1.09c-.06.25-.4.2-.61.28a6.75,6.75,0,0,1-.68.19c-.2,0-.88.3-.87,0Z"/><path class="cls-4" d="M367.07,238.48a7.06,7.06,0,0,1,1.47-.7c.25-.09.49-.35.74-.2s.78.6.73,1.1a1.76,1.76,0,0,1-.73.9c-.25.14-.49-.12-.74-.2s-.49-.19-.73-.3-.49-.24-.74-.4a.12.12,0,0,1,0-.2Z"/><path class="cls-4" d="M367,247.42a6.67,6.67,0,0,1,.15-1.49c.05-.23,0-.56.2-.66a1.45,1.45,0,0,1,1.29.07,1.66,1.66,0,0,1,.38,1c0,.27-.34.31-.54.44a4.17,4.17,0,0,1-.61.38c-.2.05-.79.54-.87.22Z"/><path class="cls-4" d="M371.87,242.74a11.1,11.1,0,0,1,.92-1.86c.18-.29.23-.71.57-.83.15-.09,1.22-.29,1.47.12a1.9,1.9,0,0,1-.09,1.32c-.13.34-.55.37-.84.54a9.69,9.69,0,0,1-.91.46c-.33.13-.64.28-1,.39a.11.11,0,0,1-.13-.14Z"/><path class="cls-4" d="M373.35,237.6a15,15,0,0,1,2.28-.7c.38-.08.76-.35,1.14-.2a2.21,2.21,0,0,1,1.14.9.18.18,0,0,1,0,.2,2.16,2.16,0,0,1-1.14.9c-.38.15-.76-.11-1.14-.2s-.76-.18-1.14-.3-.76-.24-1.14-.4a.11.11,0,0,1,0-.2Z"/><path class="cls-4" d="M355.47,296.94c-.12-.13,86.82,14.33,85.89,14.23L488.29,291l-.32.48L487.16,155l1.18.84-25.25,8.81-25.27,8.75a1,1,0,0,1-.41.05l-26.11-2.36q-39.17-3.57-78.31-7.45l.7-.64-.25,47c0,.1-.2,47.1-.44,47.08s-.29-47-.39-47.08l-.21-47a.65.65,0,0,1,.7-.64c17.42,1.41,34.84,2.95,52.26,4.44,15.11,1.19,36.91,3.34,52.23,4.67l-.41.05,25.28-8.71,25.3-8.65a.89.89,0,0,1,1.13.55c-.31.92.8,136.6-.18,137.23l-47.07,19.85c-.11.09-86.72-14.56-86.17-14.89Z"/><path class="cls-4" d="M383,228.4c2.84,2,.83-4.74.77-5.88-.82-3.8-1.68-7.59-2.79-11.31a11.56,11.56,0,0,0-1.7-3.84c-1.94,0-4.13,1-6,1.83-2,1-4.66,2.31-5.92,4.08l-.09.14c0,.05,0,0,0,0a7.39,7.39,0,0,0,1.4,2,140.29,140.29,0,0,0,14.32,13Zm-.12.16c-5.32-3.74-11.29-6.85-15.75-11.78a6.34,6.34,0,0,1-1.84-3.31,1.93,1.93,0,0,1,.21-1,9.68,9.68,0,0,1,3.52-3c3.12-1.67,6.4-3.24,10-3.51a4.16,4.16,0,0,1,.66.09,2,2,0,0,1,1,1c2.65,6.1,3.14,12.76,3.91,19.27.2,1.33.19,3.52-1.73,2.22Z"/><path class="cls-4" d="M387.11,228.35c.87,3.34,3.72-3.07,4.41-4,1.85-3.41,3.67-6.85,5.24-10.4a11.6,11.6,0,0,0,1.21-4c-1.47-1.27-3.8-1.92-5.76-2.52-2.19-.55-5-1.28-7.15-.75l-.15,0c-.07,0,0,0,0,0a7.33,7.33,0,0,0-.25,2.45,141.83,141.83,0,0,0,2.42,19.18Zm-.19,0c-1.61-6.3-4.13-12.54-4.3-19.19a6.36,6.36,0,0,1,.76-3.71,1.85,1.85,0,0,1,.8-.61,9.71,9.71,0,0,1,4.61,0c3.45.76,7,1.7,9.86,3.82a4.47,4.47,0,0,1,.44.5,2,2,0,0,1,.15,1.43c-1.5,5.13-4.52,9.5-7.36,13.94-.9,1.36-1.81,2.71-2.79,4-.71,1.08-1.86,1.28-2.17-.23Z"/><path class="cls-4" d="M390.8,229c-1.89,2.89,4.77.71,5.9.61,3.78-.92,7.55-1.88,11.23-3.1a11.82,11.82,0,0,0,3.8-1.8c-.05-1.94-1.13-4.11-2-6-1.06-2-2.44-4.59-4.24-5.8l-.14-.09c-.06,0,0,0,0,0a7.22,7.22,0,0,0-2,1.46A139.18,139.18,0,0,0,390.8,229Zm-.16-.12c3.59-5.42,6.53-11.47,11.34-16.06a6.4,6.4,0,0,1,3.26-1.93,1.85,1.85,0,0,1,1,.19,9.63,9.63,0,0,1,3.08,3.43c1.75,3.08,3.41,6.31,3.78,9.88a5.5,5.5,0,0,1-.07.66,2,2,0,0,1-1,1.07c-6,2.81-12.66,3.49-19.15,4.43-1.32.24-3.52.29-2.27-1.67Z"/><path class="cls-4" d="M381.31,234.32c1.5-.17,1.73,1,.9,2-.94,1.33-1.94,2.62-3,3.89-3.34,4.08-6.56,8.31-11,11.33a2,2,0,0,1-1.41.3,4.88,4.88,0,0,1-.61-.27c-2.91-2.09-4.89-5.14-6.69-8.18a9.66,9.66,0,0,1-1.46-4.38,2,2,0,0,1,.33-.95,6.39,6.39,0,0,1,3.3-1.87c6.37-1.9,13.08-1.44,19.57-1.87Zm0,.2a139.16,139.16,0,0,0-19,3.65,7.23,7.23,0,0,0-2.25,1s0-.11,0,0v.16c.15,2.17,1.72,4.65,2.93,6.56,1.17,1.68,2.52,3.69,4.18,4.7a11.82,11.82,0,0,0,3.45-2.4c2.88-2.59,5.59-5.39,8.26-8.21.68-.95,5.84-5.64,2.4-5.42Z"/><path class="cls-4" d="M384.66,236.56c.46-.54,1.39-.85,1.74,0,.56,1.88.38,3.92.53,5.86.12,5.27.42,10.57-1,15.74a2,2,0,0,1-.88,1.14,4.44,4.44,0,0,1-.63.19c-3.58.31-7.06-.72-10.41-1.86a9.64,9.64,0,0,1-3.95-2.37,1.88,1.88,0,0,1-.37-.94,6.4,6.4,0,0,1,1.28-3.57c3.61-5.58,9-9.6,13.65-14.15Zm.15.14a140,140,0,0,0-12,15.12,7.17,7.17,0,0,0-1.06,2.22s-.08-.07,0,0l.11.11c1.53,1.55,4.34,2.41,6.5,3.08,2,.51,4.31,1.16,6.23.84a11.74,11.74,0,0,0,1.06-4.06c.5-3.84.74-7.73.93-11.61-.11-1.17.77-8.09-1.7-5.68Z"/><path class="cls-4" d="M388.1,238.1c-.13-1.51,1-1.7,2-.84,1.3,1,2.56,2,3.81,3.06,4,3.45,8.12,6.78,11,11.28a2,2,0,0,1,.26,1.41,4.17,4.17,0,0,1-.28.6c-2.17,2.86-5.28,4.75-8.37,6.47a9.59,9.59,0,0,1-4.41,1.33,1.86,1.86,0,0,1-.94-.35,6.34,6.34,0,0,1-1.79-3.34c-1.72-6.43-1.08-13.13-1.32-19.62Zm.19,0a140,140,0,0,0,3.13,19.08,7.12,7.12,0,0,0,.94,2.27s-.11,0,0,0h.16c2.17-.1,4.7-1.6,6.64-2.75,1.71-1.13,3.76-2.42,4.81-4.05a11.82,11.82,0,0,0-2.3-3.51c-2.52-3-5.23-5.74-8-8.49-.94-.7-5.48-6-5.36-2.55Z"/><path class="cls-4" d="M391.08,234c-3.37.78,3,3.81,3.84,4.52,3.36,1.95,6.75,3.86,10.25,5.53a11.67,11.67,0,0,0,4,1.33c1.3-1.44,2-3.75,2.67-5.69.62-2.17,1.43-5,1-7.12l0-.16c0-.07,0,0,0,0a7.42,7.42,0,0,0-2.44-.31A140.47,140.47,0,0,0,391.08,234Zm0-.19c6.35-1.43,12.66-3.77,19.31-3.76a6.31,6.31,0,0,1,3.68.86,1.9,1.9,0,0,1,.59.82,9.69,9.69,0,0,1-.15,4.61c-.87,3.43-1.9,6.92-4.11,9.75a5.78,5.78,0,0,1-.5.43,2.08,2.08,0,0,1-1.44.11c-5.09-1.65-9.37-4.79-13.73-7.76-1.34-.93-2.66-1.88-3.94-2.9-1.05-.74-1.23-1.89.29-2.16Z"/><path class="cls-4" d="M380.92,230.15c.55.43.89,1.36.09,1.74-1.86.6-3.9.48-5.84.69-5.27.26-10.56.72-15.76-.52a2,2,0,0,1-1.17-.84,6.64,6.64,0,0,1-.21-.63c-.41-3.57.52-7.08,1.57-10.46a9.77,9.77,0,0,1,2.26-4,2,2,0,0,1,.93-.39,6.37,6.37,0,0,1,3.6,1.18c5.68,3.45,9.86,8.73,14.53,13.25Zm-.13.15a138.31,138.31,0,0,0-15.46-11.61,7.12,7.12,0,0,0-2.25-1s.08-.08,0,0l-.12.12c-1.5,1.57-2.28,4.4-2.89,6.58-.45,2-1,4.34-.67,6.25a11.73,11.73,0,0,0,4.09.94c3.86.4,7.75.53,11.64.61,1.16-.14,8.1.54,5.63-1.86Z"/><path class="cls-4" d="M441.4,311.5l-4.54-139a.64.64,0,0,1,.62-.66.61.61,0,0,1,.43.15L466,194.92l-1.14.21,22.4-40.54L488,156c-26.19-1.9-58.39-4.28-84.41-6.45.36,0-29.32-2.35-27.84-2.37-10.83,3.8-32.78,11.3-43.65,15-.11.05-.19-.15-.07-.19,10.8-4,32.44-12.13,43.26-16.08a.55.55,0,0,1,.28,0l28.15,1.94c26,1.75,58.29,4.32,84.42,6.36a.92.92,0,0,1,.73,1.37l-22.69,40.38a.76.76,0,0,1-1.14.21L437.09,173l1.05-.51c-.2,0,3.86,139.63,3.26,139Z"/><path class="cls-4" d="M355.58,223.15c6-21.77,32.79-30.86,50.65-16.81,22.77,17.92,12.63,54.29-16.08,58-23,2.81-41-19.18-34.57-41.15Zm.2,0c-4.68,16.35,5.86,34,22.16,38.16,15.82,4.67,33.82-5.25,38.11-21.25,4.9-16-5.16-34.11-21.36-38.45-16.29-5-34.55,5-38.91,21.54Z"/><path class="cls-4" d="M389.32,233.79c-1.53,4.47-7.56,2.67-6.69-1.88,1.36-5.08,8.4-3.26,6.69,1.88Zm-.2-.06c.58-2.76-4-3.88-4.95-1.39-1.11,3.14,4.1,4.68,4.95,1.39Z"/><path class="cls-4" d="M378.07,211.76a11.2,11.2,0,0,0,.79,1.24c.13.22.45.38.37.65a1.89,1.89,0,0,1-.65,1,1.4,1.4,0,0,1-1.28-.44c-.21-.22,0-.55,0-.83a4.62,4.62,0,0,1,.14-.87,1.64,1.64,0,0,1,.49-.87c.09-.06.12.08.14.14Z"/><path class="cls-4" d="M372,213.73a11.9,11.9,0,0,1,1.91,1c.3.19.73.25.85.6.1.15.32,1.26-.09,1.5a2,2,0,0,1-1.35-.12c-.34-.14-.39-.57-.56-.88a10.46,10.46,0,0,1-.49-.94c-.14-.34-.3-.66-.42-1a.11.11,0,0,1,.15-.13Z"/><path class="cls-4" d="M378.35,217.73a9.34,9.34,0,0,1,.64,1.58c.07.26.32.53.17.78s-.64.81-1.13.74a1.72,1.72,0,0,1-.87-.81c-.14-.27.13-.52.23-.77a6.37,6.37,0,0,1,.33-.77c.14-.15.38-1,.63-.75Z"/><path class="cls-4" d="M380.32,219.8a9.22,9.22,0,0,1,1.39,1.08c.21.2.57.31.57.61a1.75,1.75,0,0,1-.4,1.15c-.39.29-1.21-.06-1.35-.18s-.16-.53-.22-.8a8.09,8.09,0,0,1-.12-.86,8.88,8.88,0,0,1-.05-.9.12.12,0,0,1,.18-.1Z"/><path class="cls-4" d="M393.51,211.82a10.73,10.73,0,0,1-.25,2c-.07.32,0,.73-.26.95-.11.14-1.05.66-1.41.36a1.94,1.94,0,0,1-.37-1.27c0-.35.4-.52.62-.77a9.49,9.49,0,0,1,.7-.72c.27-.22.51-.46.79-.68.08,0,.19,0,.18.09Z"/><path class="cls-4" d="M387.27,208.86a7.15,7.15,0,0,1,1.05,1.29c.15.22.46.4.38.68s-.37.92-.88,1a1.7,1.7,0,0,1-1.05-.51c-.21-.21,0-.51,0-.78a7.67,7.67,0,0,1,.11-.8c.09-.19.09-1.07.39-.88Z"/><path class="cls-4" d="M388.69,216.1a5.6,5.6,0,0,1,.36,1.3c0,.21.23.46,0,.61a1.47,1.47,0,0,1-1.21.26,1.62,1.62,0,0,1-.71-.8c-.1-.23.21-.34.34-.5a4.94,4.94,0,0,1,.45-.47c.18-.1.55-.65.73-.4Z"/><path class="cls-4" d="M390.34,219a9.6,9.6,0,0,1,.18,1.92c0,.31.18.67,0,.91s-.87.78-1.3.57a1.83,1.83,0,0,1-.62-1.11c-.06-.32.27-.54.43-.81s.34-.52.54-.78.39-.51.62-.76a.12.12,0,0,1,.2.06Z"/><path class="cls-4" d="M406.88,217.62a9.43,9.43,0,0,1-1.62.81c-.28.11-.54.39-.83.26s-.94-.54-.91-1a1.73,1.73,0,0,1,.77-1c.27-.17.57.07.85.14a6.9,6.9,0,0,1,.86.24c.29.11.58.2.87.34a.12.12,0,0,1,0,.2Z"/><path class="cls-4" d="M409.75,223.28a13.38,13.38,0,0,1-1.57,1.62c-.27.24-.47.64-.85.68a2.07,2.07,0,0,1-1.37-.3.17.17,0,0,1-.09-.17,2.1,2.1,0,0,1,.52-1.3c.25-.3.69-.23,1-.32a13.92,13.92,0,0,1,2.22-.38.11.11,0,0,1,.1.17Z"/><path class="cls-4" d="M406.07,220.61a12.67,12.67,0,0,1-1.59,1.52c-.28.23-.48.62-.86.63a2,2,0,0,1-1.33-.37.18.18,0,0,1-.08-.18,2,2,0,0,1,.56-1.26c.25-.28.68-.19,1-.26a13.36,13.36,0,0,1,2.19-.26.11.11,0,0,1,.08.18Z"/><path class="cls-4" d="M399.65,220.71a6.73,6.73,0,0,1,.32,1.45c0,.24.21.52,0,.69a1.43,1.43,0,0,1-1.23.33,1.63,1.63,0,0,1-.69-.87c-.09-.25.23-.39.37-.58a5.83,5.83,0,0,1,.46-.55c.18-.1.57-.75.76-.47Z"/><path class="cls-4" d="M397,226a13,13,0,0,1,2.14-.31c.35,0,.73-.21,1,0s1,.84.8,1.27a2,2,0,0,1-1.17.69c-.36.08-.65-.24-1-.38s-.63-.31-.95-.49-.62-.36-.92-.58a.11.11,0,0,1,0-.2Z"/><path class="cls-4" d="M361.17,97c5.44,19,13.88,47.23,19.58,66.36l-.4-.31,9.26-.06-.47.64-24.8-75c.79-5.37,1.26-13.76-6.67-12.22-3.73,1-6.94,3.5-10.07,5.73-13.37,10.28-25.44,22.22-37.39,34.11V114.9l5,5-1.3,0c7.55-7.12,18.7-17.32,26.45-24.47l9.94-9.15,1.66-1.54c2.24-2.14,6.76-2.08,8,1.09a6,6,0,0,1,.36,2.28,23.8,23.8,0,0,0,.89,8.88Zm-.19,0a24.11,24.11,0,0,1-1-8.93,4.12,4.12,0,0,0-1.71-3.74,5.06,5.06,0,0,0-6,.75l-1.61,1.56-3.22,3.15-19.33,18.9c-4.29,4.2-8.63,8.35-12.95,12.53a.93.93,0,0,1-1.3,0l-5-5a1,1,0,0,1,0-1.4c13.21-13.17,26.42-26.65,41.95-37.12a21.59,21.59,0,0,1,6.62-3.05c6.09-1.2,9.12,3,9.05,8.64a24.34,24.34,0,0,1-.54,5.24l0-.43,24.22,75.16a.49.49,0,0,1-.46.64l-9.26-.06a.42.42,0,0,1-.41-.31c-5.47-19.32-13.37-47.54-19-66.55Z"/><path class="cls-5" d="M216,307.19c2.07,16.92,7.35,60,9.29,76.3.52,7.35,4.64,14,9.67,19.22,1,1.11,2.4,2.12,3.51,3.16,1.26.85,2.58,1.9,3.85,2.72l2.74,1.55,1.37.78,4.34,1.9a12.37,12.37,0,0,0,1.47.56l4.51,1.46c9.16,2.34,18.79,3.66,28.2,2.52a46.35,46.35,0,0,0,35.51-23,37.58,37.58,0,0,0,2.63-5.51l20.07-88.69,1.14,1c-15.68,5.72-31.41,11.28-47.25,16.56-5.34,1.71-10.54,3.56-16.05,4.8a11.57,11.57,0,0,1-4.31,0c-4.15-.6-8.23-1.51-12.31-2.45-16.24-3.84-32.34-8.25-48.38-12.83Zm0,0c16.14,4.19,32.29,8.38,48.58,11.93,4.07.86,8.14,1.73,12.25,2.28a10.39,10.39,0,0,0,4,0c21.34-6,42-14.44,62.9-21.87l1.49-.55-.35,1.55c0,.06-19.85,88.78-19.86,88.84a37.85,37.85,0,0,1-2.83,5.95,48.27,48.27,0,0,1-37,23.83c-9.72,1.13-19.49-.24-28.87-2.67-1-.33-3.62-1.21-4.61-1.54a11.47,11.47,0,0,1-1.51-.58,59.63,59.63,0,0,1-5.86-2.82l-2.81-1.64c-1.31-.86-2.67-1.95-4-2.85-1.13-1.11-2.54-2.15-3.6-3.31-5.18-5.43-9.39-12.5-9.85-20.12-1.78-16.28-6.32-59.6-8.08-76.42Z"/><path class="cls-5" d="M319.15,252c16.84,5.22,33.71,10.54,49.82,17.78,5.37,2.84,14.07,5.58,7.8,12.84-4.1,4.45-9.41,7.29-14.62,10.15s-10.6,5.2-16,7.49c-20.32,8.49-41.39,15.42-62.45,21.86-.67.19-2.51.76-3.16.95-1.93.52-4.07.07-5.9-.15-21.72-4-42.85-10.66-64.07-16.67q-17.13-5.06-34.19-10.41v-.47l.09-14v-.4l.37-.12c12.64-4.16,38-12.48,50.6-16.57-12.47,4.44-37.74,13.25-50.24,17.62l.37-.53.09,14-.45-.62c11.25,3.37,22.54,6.63,33.83,9.87,16.93,4.85,33.88,9.67,51,13.74,4.27,1,8.55,1.95,12.87,2.6,1.75.19,3.41.58,5,.19,10.69-3.16,22-6.67,32.53-10.24,12.47-4.41,62.55-20.9,65.18-32.65a3.25,3.25,0,0,0-1.64-3.15,44.75,44.75,0,0,0-7.51-4.33c-15.95-7.45-32.69-13.12-49.35-18.78Z"/><path class="cls-5" d="M177,281.33c0-.05,101.76,28.15,100.5,28l100.25-33.56.43,1.56c-9.44,2.11-19,3.78-28.79,3.9-25.51.46-37.31-12.38-30.35-37.51a106.56,106.56,0,0,1,11.86-26.59l.66,1.43c.28.21-103.74-14.27-101.13-14.16-9.27,5.11-17.11,14-19,24.68-1.63,10.45.82,22.22,8.63,29.74a21.24,21.24,0,0,0,9,5.42c35.29,9.9,72.23,13.15,108.75,14.57,1.22.1,3.81-.2,3.63,1.74a4,4,0,0,1-1.58,1.94,31.43,31.43,0,0,1-4.84,2.87c-20,9.27-42.28,14.35-64.38,13.55a188.21,188.21,0,0,1-22-1.92c-10.77-1.83-22.11-3.91-31.24-10.28-8.42-6.33-3.83-13.13,4.28-16.47a72.78,72.78,0,0,1,10.41-3.6,73,73,0,0,0-10.36,3.7c-7.79,3.33-12.55,9.89-4.13,16.11,9.11,6.22,20.41,8.17,31.13,9.88,21.77,3.13,44.15,2.23,65.23-4.33a126.87,126.87,0,0,0,20.46-7.8c2-1.13,4.36-2.08,5.68-3.91a.43.43,0,0,0,0,.09c0,.05,0,.05,0,0-33.75-1.38-67.86-3.75-100.89-11.62-4-1-8.07-2-12-3.25a24,24,0,0,1-8.38-5.42c-10.71-10.38-12.8-29.2-5.32-42a42.05,42.05,0,0,1,16.09-15.48l.25-.14.31,0,101.69,14.12,1.43.2a114.44,114.44,0,0,0-7.49,13.88C313.84,256.86,315,280,349.37,279.47c9.56-.1,19.08-1.72,28.45-3.76l.43,1.56-100.43,33c-.29.41-100.5-29.09-100.82-28.93Z"/><path class="cls-3" d="M119.49,299.9a1.21,1.21,0,0,1,.72.15.28.28,0,0,1,.05.32,2.16,2.16,0,0,1-.69.63,35.89,35.89,0,0,1-4.81,2.39c-5.65,1.85-11.4,3.36-17.2,4.65-17,3.53-36.22,6.34-52.92.13-5.52-2.28-11.75-5.58-12.12-12.3-.49-6.12,2.21-12.19,6.46-16.5,6.47-6.81,16.87-7.94,25.43-4.95a49.34,49.34,0,0,1,8.42,3.78,58.69,58.69,0,0,0,7.61,13.14c2.54,3.08,5.94,6.51,10.16,6.07a.68.68,0,0,0-.33.83.59.59,0,0,0,.2.28l0,0c-10.14-2.65-20.67-4.22-30.9-6.67-9.77-2.52-53.06-10.95-49.58-24.35,1.05-3.09,3.52-5,6.09-6.8,3.68-2.16,7.53-1.12,10.79,1.18,4.29,3,7.74,6.71,11.66,9.82,5.74,4.73,12.53,8.28,20,9.25a40,40,0,0,0,7.42.31,50.28,50.28,0,0,1,29.34,7.38,113.13,113.13,0,0,1,12.46,8.74c4,2.85,7.79,6.87,12.84,7.55v.2a9.24,9.24,0,0,1-3.69-1c-3.45-1.64-6.46-4.05-9.54-6.25-12.18-9.29-25.54-16.53-41.33-15.06-10.39.83-20.68-3.05-28.64-9.64-2-1.58-3.94-3.26-5.83-4.94C28,265.36,24.1,261,19.35,261.54c-2.15.4-4.09,1.95-5.72,3.71-1.62,1.58-2.55,3.65-1.45,5.73,8,13,61.12,21.59,77.39,25.68.8.28,2.64.46,2,1.81a.89.89,0,0,1-.44.32,8.58,8.58,0,0,1-6.07-1.27c-6.58-4.33-10.19-11.65-13.36-18.6l.28.32a47.7,47.7,0,0,0-8-3.63,30.85,30.85,0,0,0-8.55-1.56c-10.32-.58-20,7.28-21.75,17.42-.74,4.14,0,9,3.63,11.59,4.61,3.65,10.33,5.66,16.06,6.8,14.6,2.7,29.65.74,44.07-2.21,5.79-1.24,11.55-2.71,17.2-4.51,1.76-.84,3.93-1.5,5.39-2.86.06-.08,0-.1-.16-.14a1.87,1.87,0,0,0-.42,0v-.2Z"/><path class="cls-3" d="M223.76,375.78a483.31,483.31,0,0,1-57.84-22.27q-10.09-6.11-19.82-12.77c-9.68-6.74-19.47-13.56-27.63-22.18-5.25-5.92-7.26-9.44-2.24-16.57,3.79-5,10.18-7.16,16.14-7.75,8.06-.91,16,1.11,23.37,4.22a349.77,349.77,0,0,1,32.37,14.33,227.9,227.9,0,0,1,30.27,18.28l-.12.17C198.51,318.43,177,308.72,155,300.37c-7.1-2.92-14.73-5-22.46-4.16-7.36.53-15.43,4.11-17.38,11.8-1.74,5.32,9.17,14.18,12.9,17.55,12,10,25.1,18.8,38.35,27.11,18.14,9,38.5,16.2,57.33,23.11Z"/><path class="cls-3" d="M146.31,321.63c5.45-4.9,5.21-13,7.2-19.52a22.49,22.49,0,0,1,1-3l.2,0c.95,6.3-1.17,12.55-4.08,18.06a11.72,11.72,0,0,1-4.2,4.6l-.09-.18Z"/><path class="cls-3" d="M177.56,342.91c1.75-1.71,2.32-4.4,3-6.69,2.09-7.31,2-15,4.61-22.2l.2,0c.68,7.71-1.44,15.24-3.86,22.48-1,2.32-1.78,5-3.89,6.58l-.07-.19Z"/><path class="cls-3" d="M190.84,341.69c5.15-3.71,6.1-10.43,8.7-15.81a18.57,18.57,0,0,1,1.28-2.4l.2,0c.25,5.58-2.59,10.64-5.9,14.92a12,12,0,0,1-4.2,3.43l-.08-.19Z"/><path class="cls-3" d="M115.94,307.59a.32.32,0,0,1-.12.08l-.2.07-.4.15c-3.24,1.19-8.82,3.14-12.15,4.29-13,4.47-26.07,8.72-39.35,12.28-7.79,2-15.67,4.09-23.75,4.33a10.27,10.27,0,0,1-5.29-1.11c-7.32-4.43-14.83-17-12.93-25.63,4-16.09,38.53-2.16,47.84,3.25,4,2.24,7.87,4.8,11.77,7.11A35.21,35.21,0,0,0,93,317.13c6.83,1,23.12-.25,23-9.54Zm.1-.18a.75.75,0,0,1,.09.29,5.85,5.85,0,0,1-.2,2.39c-2.43,7.73-16.31,9.2-23.19,8.45-9-1.36-16.27-7.48-24.11-11.49a92.83,92.83,0,0,0-18.82-7.7c-6.8-1.85-20.94-6.18-25.57,1-4.62,7.41,5,24.15,12.52,26.83a19.89,19.89,0,0,0,6.58.22,141.06,141.06,0,0,0,20.13-3.88C81,319.09,98.9,313.21,116,307.41Z"/><image width="612" height="489" transform="translate(135 -481)" xlink:href="food7.png"/></g></svg>